<?xml version="1.0" encoding="UTF-8" standalone="no"?><!-- Generator: Gravit.io --><svg xmlns="http://www.w3.org/2000/svg" xmlns:xlink="http://www.w3.org/1999/xlink" style="isolation:isolate" viewBox="0 0 68.5 117.6" width="68.5pt" height="117.6pt"><defs><clipPath id="_clipPath_pCq8GyzHt2wYNarXuVF4X5a6jKv6tl7D"><rect width="68.5" height="117.6"/></clipPath></defs><g clip-path="url(#_clipPath_pCq8GyzHt2wYNarXuVF4X5a6jKv6tl7D)"><rect width="68.5" height="117.6" style="fill:rgb(0,0,0)" fill-opacity="0"/><g><path d=" M 46.867 12.101 C 46.868 6.833 51.14 2.561 56.409 2.561 C 61.678 2.561 65.949 6.832 65.949 12.101 C 65.949 17.37 61.678 21.641 56.408 21.641 C 55.775 21.641 55.158 21.576 54.56 21.459 C 54.278 22.252 53.992 23.062 53.701 23.89 C 54.573 24.09 55.476 24.205 56.408 24.205 C 63.093 24.205 68.51 18.786 68.511 12.102 C 68.51 5.419 63.093 0 56.409 0 C 49.724 0 44.307 5.418 44.305 12.102 C 44.306 16.791 46.978 20.85 50.877 22.859 C 51.169 22.028 51.457 21.215 51.74 20.418 C 48.834 18.781 46.867 15.673 46.867 12.101 Z " fill="rgb(137,137,137)"/><path d=" M 65.949 12.104 C 65.949 6.835 61.678 2.564 56.409 2.564 C 51.14 2.564 46.869 6.835 46.867 12.104 C 46.868 15.675 48.834 18.785 51.741 20.418 C 52.23 19.042 52.704 17.724 53.156 16.488 C 51.815 15.493 50.943 13.902 50.943 12.103 C 50.943 9.084 53.391 6.637 56.41 6.637 C 59.429 6.637 61.875 9.085 61.875 12.103 C 61.875 15.121 59.427 17.569 56.409 17.569 C 56.261 17.569 56.115 17.557 55.97 17.547 C 55.521 18.776 55.049 20.088 54.562 21.46 C 55.16 21.577 55.777 21.641 56.41 21.641 C 61.678 21.643 65.949 17.371 65.949 12.104 Z " fill="rgb(232,232,232)"/><path d=" M 61.874 12.102 C 61.874 9.084 59.427 6.636 56.409 6.636 C 53.39 6.636 50.942 9.084 50.942 12.102 C 50.942 13.9 51.815 15.492 53.155 16.488 C 53.833 14.631 54.462 12.948 55.009 11.554 C 55.312 10.781 56.184 10.401 56.956 10.703 C 57.727 11.006 58.109 11.878 57.807 12.651 C 57.265 14.033 56.641 15.703 55.968 17.547 C 56.114 17.558 56.259 17.569 56.407 17.569 C 59.427 17.568 61.874 15.121 61.874 12.102 Z " fill="rgb(200,200,200)"/><path d=" M 54.457 21.564 C 54.944 20.192 55.416 18.88 55.865 17.651 C 56.538 15.808 57.162 14.137 57.704 12.755 C 58.006 11.983 57.625 11.11 56.853 10.807 C 56.081 10.504 55.209 10.885 54.906 11.658 C 54.359 13.053 53.73 14.736 53.052 16.592 C 52.6 17.828 52.127 19.145 51.637 20.522 C 51.353 21.319 51.066 22.132 50.774 22.963 C 47.899 31.143 44.683 40.717 42.587 47.018 L 42.424 47.506 C 42.14 48.357 41.928 49.098 41.779 50.005 C 41.453 51.994 41.433 54.782 41.64 61.28 C 41.711 63.512 41.754 65.462 41.777 67.175 C 41.843 72.166 41.738 75.132 41.668 77.105 L 41.641 77.877 C 41.63 78.212 41.631 78.524 41.633 78.827 C 41.643 80.642 41.648 81.841 37.206 86.421 C 36.437 87.213 35.316 88.249 33.978 89.429 C 29.437 93.436 22.277 99.191 16.865 103.472 C 15.812 102.636 14.506 102.427 13.56 103.056 L 1.047 111.36 C -0.214 112.197 -0.355 114.199 0.73 115.834 C 0.813 115.96 0.909 116.067 1.001 116.182 C 2.109 117.55 3.811 118.053 4.974 117.283 L 17.49 108.978 C 18.163 108.531 18.501 107.747 18.515 106.865 C 18.519 106.601 18.501 106.332 18.446 106.057 C 20.814 104.187 23.54 102.015 26.255 99.815 C 31.645 95.446 36.985 90.965 39.364 88.513 C 44.403 83.318 44.652 81.443 44.639 78.814 C 44.638 78.547 44.637 78.271 44.646 77.977 L 44.673 77.211 C 44.769 74.524 44.928 70.026 44.646 61.185 C 44.344 51.748 44.558 50.616 45.277 48.457 L 45.439 47.967 C 47.529 41.685 50.737 32.139 53.599 23.995 C 53.889 23.167 54.175 22.358 54.457 21.564 Z " fill="#938C93"/></g></g></svg>